<?xml version="1.0" standalone="no"?>
<!DOCTYPE svg PUBLIC "-//W3C//DTD SVG 20010904//EN"
 "http://www.w3.org/TR/2001/REC-SVG-20010904/DTD/svg10.dtd">
<svg version="1.0" xmlns="http://www.w3.org/2000/svg"
 width="2421.000000pt" height="896.000000pt" viewBox="0 0 2421.000000 896.000000"
 preserveAspectRatio="xMidYMid meet">

<g transform="translate(0.000000,896.000000) scale(0.100000,-0.100000)"
fill="#000000" stroke="none">
<path d="M11375 8929 c-697 -47 -1375 -120 -1890 -204 -121 -19 -305 -47 -410
-60 -104 -13 -279 -39 -387 -57 l-198 -33 0 -3248 c0 -3642 -8 -3292 77 -3461
91 -182 269 -372 468 -501 66 -43 161 -104 210 -136 50 -32 151 -87 226 -123
188 -90 432 -187 317 -126 -54 29 -248 226 -287 292 -78 134 -145 356 -172
568 -18 150 -19 258 -19 3195 l0 3040 73 23 c285 89 511 155 627 182 606 142
915 209 1235 265 149 26 637 65 824 65 203 0 630 -32 816 -61 358 -57 668
-121 1295 -269 121 -29 370 -99 627 -177 l93 -28 0 -3045 0 -3045 -35 -106
c-50 -150 -114 -249 -254 -391 -103 -104 -134 -129 -271 -214 -85 -52 -225
-129 -310 -170 -85 -42 -212 -105 -281 -140 -177 -89 -530 -214 -721 -255 -84
-18 -124 -21 -243 -17 -135 4 -144 5 -196 35 -73 41 -103 85 -94 138 8 47 11
73 27 214 13 118 27 162 79 241 20 30 51 81 70 114 36 61 95 133 209 252 76
79 74 73 120 304 38 190 70 476 70 629 0 62 7 188 16 280 13 136 15 244 11
606 -5 411 -7 450 -32 600 -117 719 -331 1987 -355 2100 -62 297 -114 508
-175 700 -34 110 -73 247 -85 305 -34 161 -128 515 -160 605 -44 124 -188 414
-237 477 -41 54 -69 78 -91 78 -44 0 -227 -450 -298 -735 -70 -277 -181 -1214
-203 -1710 -7 -137 -25 -455 -41 -705 -17 -250 -52 -844 -80 -1320 -27 -476
-53 -900 -56 -942 l-7 -78 26 0 c14 0 29 4 32 10 17 28 109 733 235 1796 83
707 155 1263 250 1919 21 149 48 349 59 445 21 171 95 595 111 635 6 16 9 17
13 5 3 -8 35 -224 72 -480 69 -480 92 -608 144 -817 87 -344 131 -598 186
-1078 30 -258 66 -557 80 -662 14 -106 25 -235 25 -285 0 -51 16 -408 35 -793
71 -1406 83 -1724 68 -1783 -8 -29 -51 -128 -97 -220 -89 -177 -119 -215 -242
-302 -59 -42 -110 -137 -131 -245 -19 -102 -16 -408 6 -505 l16 -75 90 3 c249
7 457 24 565 47 63 13 151 29 195 35 360 49 773 161 1185 320 295 114 528 232
830 420 85 53 175 108 200 122 61 36 283 248 329 317 65 96 101 178 126 291
l25 109 0 3233 0 3233 -208 33 c-114 18 -292 44 -397 57 -104 13 -289 40 -410
60 -510 83 -1222 158 -1941 205 -580 38 -804 38 -1379 -1z"/>
</g>
</svg>
